<?xml version="1.0" encoding="utf-8"?>
<!-- Generator: Adobe Illustrator 19.0.0, SVG Export Plug-In . SVG Version: 6.00 Build 0)  -->
<svg version="1.1" id="Layer_1" xmlns="http://www.w3.org/2000/svg" xmlns:xlink="http://www.w3.org/1999/xlink" x="0px" y="0px"
	 viewBox="22.7 12.7 123.4 75.8" style="enable-background:new 22.7 12.7 123.4 75.8;" xml:space="preserve">
<style type="text/css">
	.st0{display:none;}
	.st1{display:inline;fill:none;}
	.st2{display:inline;fill:none;stroke:#000000;stroke-width:0.25;stroke-miterlimit:10;}
	.st3{fill:#EEEEEE;}
	.st4{fill:#4DB8E3;}
	.st5{font-family:'Copperplate';}
	.st6{font-size:14px;}
</style>
<g id="Layer_1_1_" class="st0">
</g>
<g id="Layer_2" class="st0">
	<line class="st1" x1="-1009.5" y1="929.6" x2="-649.6" y2="695"/>
	<line class="st1" x1="-1001.3" y1="940.9" x2="-641.3" y2="706.3"/>
	<line class="st1" x1="-901.3" y1="1046.9" x2="-541.3" y2="812.3"/>
	<line class="st1" x1="-888.5" y1="1052.4" x2="-528.6" y2="817.8"/>
	<line class="st1" x1="-986.9" y1="794.9" x2="-629.3" y2="1033.1"/>
	<line class="st1" x1="-996.4" y1="803.8" x2="-638.8" y2="1042"/>
	<line class="st1" x1="-846.4" y1="709.5" x2="-488.8" y2="947.7"/>
	<line class="st1" x1="-838.6" y1="700.9" x2="-481" y2="939"/>
	<line class="st1" x1="-698" y1="684.1" x2="-698" y2="1113.7"/>
	<line class="st1" x1="-808.1" y1="684.1" x2="-808.1" y2="1113.7"/>
	<line class="st1" x1="-554.3" y1="922.9" x2="-983.9" y2="922.9"/>
	<line class="st1" x1="-554.3" y1="809.2" x2="-983.9" y2="809.2"/>
	<line class="st1" x1="-563" y1="809.2" x2="-992.6" y2="809.2"/>
	<line class="st2" x1="-550.1" y1="809.2" x2="-979.8" y2="809.2"/>
	<line class="st2" x1="-824.8" y1="809.2" x2="-895.9" y2="855.5"/>
</g>
<g id="Layer_3">
	<polygon class="st3" points="32.3,40.4 61.6,21.3 57.7,17.2 22.9,40.3 58.5,64 62.4,60.4 	"/>
	<polygon class="st3" points="136.2,42.3 106.4,61.7 111.9,63.6 145.9,42.3 110.2,18.5 106.4,22.1 	"/>
	<polygon class="st4" points="45.1,40.2 62.4,40.2 62.4,57.7 59.6,55 59.4,42.7 45.1,42.8 	"/>
	<polygon class="st4" points="106.4,26.3 109.7,27.7 109.7,55.8 106.4,57.7 	"/>
	<polygon class="st3" points="68.8,69.8 73,69.8 100.9,13 96.4,13 	"/>
	<text transform="matrix(1.01 0 0 1 22.6983 88.2091)" class="st4 st5 st6">Georgi Dimitrov</text>
</g>
</svg>
