<?xml version="1.0" encoding="utf-8"?>
<!-- Generator: Adobe Illustrator 19.0.0, SVG Export Plug-In . SVG Version: 6.00 Build 0)  -->
<svg version="1.1" id="Layer_1" xmlns="http://www.w3.org/2000/svg" xmlns:xlink="http://www.w3.org/1999/xlink" x="0px" y="0px"
	 viewBox="-117 100.5 164 100.5" style="enable-background:new -117 100.5 164 100.5;" xml:space="preserve">
<style type="text/css">
	.st0{display:none;}
	.st1{display:inline;fill:none;}
	.st2{display:inline;fill:none;stroke:#000000;stroke-width:0.25;stroke-miterlimit:10;}
	.st3{fill:#5B5B5B;}
	.st4{font-family:'Copperplate';}
	.st5{font-size:17.9117px;}
</style>
<g id="Layer_1_1_" class="st0">
	
		<image style="display:inline;overflow:visible;opacity:0.27;enable-background:new    ;" width="3024" height="4032" xlink:href="A7C5ACF9.jpg"  transform="matrix(7.176430e-018 -0.1172 0.1172 7.176430e-018 -531.2885 486.7102)">
	</image>
</g>
<g id="Layer_2" class="st0">
	<line class="st1" x1="-539.5" y1="355.5" x2="-179.6" y2="120.9"/>
	<line class="st1" x1="-531.3" y1="366.8" x2="-171.3" y2="132.2"/>
	<line class="st1" x1="-431.3" y1="472.8" x2="-71.3" y2="238.2"/>
	<line class="st1" x1="-418.5" y1="478.3" x2="-58.6" y2="243.7"/>
	<line class="st1" x1="-516.9" y1="220.8" x2="-159.3" y2="459"/>
	<line class="st1" x1="-526.4" y1="229.7" x2="-168.8" y2="467.9"/>
	<line class="st1" x1="-376.4" y1="135.4" x2="-18.8" y2="373.6"/>
	<line class="st1" x1="-368.6" y1="126.8" x2="-11" y2="364.9"/>
	<line class="st1" x1="-228" y1="110" x2="-228" y2="539.6"/>
	<line class="st1" x1="-338.1" y1="110" x2="-338.1" y2="539.6"/>
	<line class="st1" x1="-84.3" y1="348.8" x2="-513.9" y2="348.8"/>
	<line class="st1" x1="-84.3" y1="235.1" x2="-513.9" y2="235.1"/>
	<line class="st1" x1="-93" y1="235.1" x2="-522.6" y2="235.1"/>
	<line class="st2" x1="-80.1" y1="235.1" x2="-509.8" y2="235.1"/>
	<line class="st2" x1="-354.8" y1="235.1" x2="-425.9" y2="281.4"/>
</g>
<g id="Layer_3">
	<polygon class="st3" points="-101.6,137.7 -64.1,113.3 -69.1,108 -113.6,137.5 -68,167.9 -63.1,163.3 	"/>
	<polygon class="st3" points="31.3,140.1 -6.8,164.9 0.2,167.3 43.7,140.1 -2,109.7 -6.8,114.3 	"/>
	<polygon points="-85.2,137.4 -63.1,137.4 -63.1,159.8 -66.6,156.3 -66.9,140.6 -85.2,140.7 	"/>
	<polygon points="-6.8,119.6 -2.6,121.5 -2.6,157.4 -6.8,159.8 	"/>
	<polygon class="st3" points="-54.9,175.3 -49.5,175.3 -13.9,102.6 -19.6,102.6 	"/>
	<text transform="matrix(1.01 0 0 1 -113.6834 198.8849)" class="st4 st5">Georgi Dimitrov</text>
</g>
</svg>
