<?xml version="1.0" encoding="utf-8"?>
<!-- Generator: Adobe Illustrator 19.0.0, SVG Export Plug-In . SVG Version: 6.00 Build 0)  -->
<svg version="1.1" id="Layer_1" xmlns="http://www.w3.org/2000/svg" xmlns:xlink="http://www.w3.org/1999/xlink" x="0px" y="0px"
	 viewBox="34.1 22.7 123 56.8" style="enable-background:new 34.1 22.7 123 56.8;" xml:space="preserve">
<style type="text/css">
	.st0{display:none;}
	.st1{display:inline;fill:none;}
	.st2{display:inline;fill:none;stroke:#000000;stroke-width:0.25;stroke-miterlimit:10;}
	.st3{fill:#EEEEEE;}
	.st4{fill:#4DB8E3;}
</style>
<g id="Layer_1_1_" class="st0">
</g>
<g id="Layer_2" class="st0">
	<line class="st1" x1="-986.5" y1="946.6" x2="-626.6" y2="712"/>
	<line class="st1" x1="-978.3" y1="957.9" x2="-618.3" y2="723.3"/>
	<line class="st1" x1="-878.3" y1="1063.9" x2="-518.3" y2="829.3"/>
	<line class="st1" x1="-865.5" y1="1069.4" x2="-505.6" y2="834.8"/>
	<line class="st1" x1="-963.9" y1="811.9" x2="-606.3" y2="1050.1"/>
	<line class="st1" x1="-973.4" y1="820.8" x2="-615.8" y2="1059"/>
	<line class="st1" x1="-823.4" y1="726.5" x2="-465.8" y2="964.7"/>
	<line class="st1" x1="-815.6" y1="717.9" x2="-458" y2="956"/>
	<line class="st1" x1="-675" y1="701.1" x2="-675" y2="1130.7"/>
	<line class="st1" x1="-785.1" y1="701.1" x2="-785.1" y2="1130.7"/>
	<line class="st1" x1="-531.3" y1="939.9" x2="-960.9" y2="939.9"/>
	<line class="st1" x1="-531.3" y1="826.2" x2="-960.9" y2="826.2"/>
	<line class="st1" x1="-540" y1="826.2" x2="-969.6" y2="826.2"/>
	<line class="st2" x1="-527.1" y1="826.2" x2="-956.8" y2="826.2"/>
	<line class="st2" x1="-801.8" y1="826.2" x2="-872.9" y2="872.5"/>
</g>
<g id="Layer_3">
	<polygon class="st3" points="43.5,50.1 72.8,31 68.9,26.9 34.1,50 69.7,73.7 73.6,70.1 	"/>
	<polygon class="st3" points="147.4,52 117.6,71.4 123.1,73.3 157.1,52 121.4,28.2 117.6,31.8 	"/>
	<polygon class="st4" points="56.3,49.9 73.6,49.9 73.6,67.4 70.8,64.7 70.6,52.4 56.3,52.5 	"/>
	<polygon class="st4" points="117.6,36 120.9,37.4 120.9,65.5 117.6,67.4 	"/>
	<polygon class="st3" points="80,79.5 84.2,79.5 112.1,22.7 107.6,22.7 	"/>
</g>
</svg>
