<?xml version="1.0" encoding="utf-8"?>
<!-- Generator: Adobe Illustrator 19.0.0, SVG Export Plug-In . SVG Version: 6.00 Build 0)  -->
<svg version="1.1" id="Layer_1" xmlns="http://www.w3.org/2000/svg" xmlns:xlink="http://www.w3.org/1999/xlink" x="0px" y="0px"
	 viewBox="-89 62.3 220 196.7" style="enable-background:new -89 62.3 220 196.7;" xml:space="preserve">
<style type="text/css">
	.st0{opacity:0.2;fill:#808080;enable-background:new    ;}
	.st1{fill:#666666;}
	.st2{fill:#C1C1C1;}
	.st3{fill:#03356C;}
	.st4{opacity:0.15;}
	.st5{fill:#070707;}
	.st6{fill:#727171;}
	.st7{fill:#EEEEEE;}
	.st8{fill:#E8563D;}
	.st9{fill:#BCA79F;}
	.st10{fill:#A9D7D8;}
	.st11{fill:#997973;}
	.st12{fill:#F7AC3B;}
	.st13{fill:#F2D970;}
	.st14{fill:#D33B26;}
	.st15{fill:#F7D581;}
	.st16{fill:#F47E14;}
	.st17{fill:#E2E2E2;}
	.st18{fill:#4C210C;}
	.st19{fill:#ADC9C9;}
	.st20{fill:#DFEFEF;}
	.st21{fill:#47B2BA;}
	.st22{fill:#4B8A8C;}
</style>
<g id="Objects">
	
		<image style="overflow:visible;opacity:0.7;" width="242" height="211" xlink:href="DBD9EE40.png"  transform="matrix(1 0 0 1 -102 67)">
	</image>
	<g>
		<g>
			<g>
				<path class="st0" d="M11.3,214.2l105.3,12.9l-18-40.7l-0.1,0c0-0.2,0.2-0.5,0.2-0.8l10.4-83.6c0.4-3.3-1.9-6.2-5-6.6L-35.2,78.2
					c-3.2-0.4-6.1,1.9-6.5,5.1L-52,166.9c0,0.3-0.1,0.7,0,1l0.1-1L-80.6,203l0.2,0c-0.2,2.1,1.8,4,4.5,4.3l187.2,23.3
					c2.8,0.3,5.2-1.1,5.4-3.3L11.3,214.2L11.3,214.2z"/>
				<g>
					<g>
						<g>
							<path class="st1" d="M100.2,182.7c-0.4,3.2-3.3,5.5-6.6,5.1l-139.4-17.3c-3.2-0.4-5.5-3.3-5.1-6.6l10.3-82.7
								c0.4-3.2,3.3-5.5,6.6-5.1l139.4,17.3c3.2,0.4,5.5,3.3,5.1,6.6L100.2,182.7z"/>
							<polygon class="st2" points="-51.1,164.8 -79.4,199.5 118.1,223.7 100.1,183.4 							"/>
							<path class="st1" d="M118.3,223.9L118.3,223.9c-0.3,2.1-2.8,3.6-5.4,3.3l-187.5-23.3c-2.8-0.3-4.8-2.3-4.5-4.5l0,0"/>
							
								<rect x="-37.6" y="92" transform="matrix(-0.9924 -0.1233 0.1233 -0.9924 43.8169 262.0283)" class="st3" width="135.3" height="75.3"/>
						</g>
						<g>
							<g class="st4">
								<polygon class="st5" points="-42.5,177.1 -47.2,176.5 -44.5,172 -40.1,172.6 								"/>
								<polygon class="st5" points="-39.7,183.4 -50.6,182.1 -47.8,177.7 -37.4,179 								"/>
								<polygon class="st5" points="-42.7,189.6 -54,188.2 -51.3,183.8 -40.4,185.1 								"/>
								<polygon class="st5" points="-37.1,177.8 -41.6,177.2 -39.2,172.7 -34.7,173.3 								"/>
								<polygon class="st5" points="-31.5,178.5 -36.1,177.9 -33.8,173.4 -29.3,173.9 								"/>
								<polygon class="st5" points="-26,179.2 -30.5,178.6 -28.5,174 -24,174.6 								"/>
								<polygon class="st5" points="-20.4,179.9 -25,179.3 -23.1,174.7 -18.6,175.3 								"/>
								<polygon class="st5" points="-14.9,180.6 -19.5,180 -17.7,175.4 -13.3,175.9 								"/>
								<polygon class="st5" points="-9.3,181.3 -14,180.7 -12.4,176 -7.9,176.6 								"/>
								<polygon class="st5" points="-3.7,181.9 -8.4,181.4 -7,176.7 -2.6,177.3 								"/>
								<polygon class="st5" points="1.8,182.6 -2.8,182.1 -1.7,177.4 2.8,177.9 								"/>
								<polygon class="st5" points="7.3,183.3 2.7,182.7 3.7,178 8.2,178.6 								"/>
								<polygon class="st5" points="12.8,184 8.3,183.4 9.1,178.7 13.5,179.3 								"/>
								<polygon class="st5" points="18.4,184.7 13.8,184.1 14.4,179.4 19,179.9 								"/>
								<polygon class="st5" points="23.9,185.4 19.3,184.8 19.9,180 24.3,180.6 								"/>
								<polygon class="st5" points="29.5,186.1 24.8,185.5 25.2,180.7 29.7,181.3 								"/>
								<polygon class="st5" points="35.1,186.8 30.4,186.2 30.6,181.4 35.1,181.9 								"/>
								<polygon class="st5" points="40.6,187.5 36,186.9 36,182 40.4,182.6 								"/>
								<polygon class="st5" points="46.1,188.1 41.5,187.6 41.3,182.7 45.8,183.3 								"/>
								<polygon class="st5" points="51.6,188.8 47.1,188.3 46.7,183.4 51.1,183.9 								"/>
								<polygon class="st5" points="57.2,189.5 52.6,188.9 52,184 56.5,184.6 								"/>
								<polygon class="st5" points="62.8,190.2 58.2,189.6 57.4,184.7 61.9,185.3 								"/>
								<polygon class="st5" points="68.3,190.9 63.6,190.3 62.7,185.4 67.2,185.9 								"/>
								<polygon class="st5" points="73.9,191.6 69.2,191 68.1,186 72.6,186.6 								"/>
								<polygon class="st5" points="79.4,192.3 74.8,191.7 73.5,186.7 77.9,187.3 								"/>
								<polygon class="st5" points="85,193 80.3,192.4 78.8,187.4 83.3,187.9 								"/>
								<polygon class="st5" points="90.4,193.6 85.9,193.1 84.2,188 88.6,188.6 								"/>
								<polygon class="st5" points="-52.5,194.5 -57.7,193.9 -55.1,189.5 -50,190.1 								"/>
								<polygon class="st5" points="-46.2,195.3 -51.5,194.7 -48.9,190.2 -43.8,190.9 								"/>
								<polygon class="st5" points="-40,196.1 -45.2,195.4 -42.9,191 -37.8,191.6 								"/>
								<polygon class="st5" points="-33.7,196.9 -39,196.2 -36.8,191.7 -31.7,192.4 								"/>
								<polygon class="st5" points="-27.5,197.6 -32.6,197 -30.7,192.5 -25.7,193.1 								"/>
								<polygon class="st5" points="-21.2,198.4 -26.4,197.8 -24.7,193.2 -19.5,193.9 								"/>
								<polygon class="st5" points="59.9,208.5 -19.9,198.6 -18.3,194 59.2,203.7 								"/>
								<polygon class="st5" points="66.4,209.3 61.3,208.7 60.5,203.8 65.5,204.5 								"/>
								<polygon class="st5" points="72.7,210.1 67.5,209.4 66.5,204.6 71.6,205.2 								"/>
								<polygon class="st5" points="78.9,210.9 73.8,210.2 72.6,205.3 77.6,206 								"/>
								<polygon class="st5" points="85.2,211.6 80,211 78.7,206.1 83.8,206.7 								"/>
								<polygon class="st5" points="91.4,212.4 86.3,211.8 84.8,206.8 89.8,207.5 								"/>
								<polygon class="st5" points="97.7,213.2 92.5,212.5 90.8,207.6 95.9,208.2 								"/>
								<polygon class="st5" points="-34.2,184.1 -39,183.5 -36.7,179.1 -32.1,179.6 								"/>
								<polygon class="st5" points="-28.5,184.8 -33.2,184.2 -31.1,179.8 -26.4,180.3 								"/>
								<polygon class="st5" points="-22.6,185.5 -27.5,184.9 -25.5,180.4 -20.9,181 								"/>
								<polygon class="st5" points="-16.9,186.3 -21.7,185.7 -20,181.1 -15.3,181.7 								"/>
								<polygon class="st5" points="-11.1,187 -15.9,186.4 -14.3,181.8 -9.6,182.4 								"/>
								<polygon class="st5" points="-5.4,187.7 -10.1,187.1 -8.7,182.5 -4.1,183.1 								"/>
								<polygon class="st5" points="0.4,188.4 -4.4,187.8 -3.2,183.2 1.5,183.8 								"/>
								<polygon class="st5" points="6.3,189.1 1.4,188.5 2.5,183.9 7.1,184.5 								"/>
								<polygon class="st5" points="12,189.8 7.1,189.2 8,184.6 12.7,185.2 								"/>
								<polygon class="st5" points="17.8,190.6 12.9,190 13.6,185.3 18.2,185.9 								"/>
								<polygon class="st5" points="23.5,191.3 18.8,190.7 19.2,186 23.9,186.6 								"/>
								<polygon class="st5" points="29.3,192 24.5,191.4 24.8,186.7 29.5,187.3 								"/>
								<polygon class="st5" points="35,192.7 30.3,192.1 30.4,187.4 35,188 								"/>
								<polygon class="st5" points="40.9,193.4 36,192.8 36,188.1 40.7,188.7 								"/>
								<polygon class="st5" points="46.6,194.2 41.8,193.5 41.6,188.8 46.2,189.4 								"/>
								<polygon class="st5" points="52.4,194.9 47.6,194.3 47.1,189.5 51.8,190.1 								"/>
								<polygon class="st5" points="58.2,195.6 53.4,195 52.8,190.2 57.4,190.8 								"/>
								<polygon class="st5" points="63.9,196.3 59.1,195.7 58.3,190.9 63,191.4 								"/>
								<polygon class="st5" points="69.8,197 64.9,196.4 63.9,191.6 68.6,192.1 								"/>
								<polygon class="st5" points="75.5,197.7 70.7,197.1 69.5,192.3 74.2,192.8 								"/>
								<polygon class="st5" points="81.3,198.5 76.4,197.8 75.1,193 79.8,193.5 								"/>
								<polygon class="st5" points="87,199.2 82.3,198.6 80.8,193.7 85.3,194.2 								"/>
								<polygon class="st5" points="95.2,206.4 90.2,205.8 86.3,194.3 91,194.9 								"/>
								<polygon class="st5" points="-37.2,190.3 -42.2,189.7 -39.9,185.2 -35.1,185.8 								"/>
								<polygon class="st5" points="-31.2,191 -36.2,190.4 -34.1,185.9 -29.2,186.5 								"/>
								<polygon class="st5" points="-25.1,191.8 -30.2,191.2 -28.2,186.7 -23.3,187.3 								"/>
								<polygon class="st5" points="-19.2,192.5 -24.1,191.9 -22.4,187.4 -17.5,188 								"/>
								<polygon class="st5" points="-13.1,193.3 -18.1,192.7 -16.5,188.1 -11.6,188.7 								"/>
								<polygon class="st5" points="-7.1,194 -12.1,193.4 -10.6,188.8 -5.8,189.5 								"/>
								<polygon class="st5" points="-1,194.8 -6.1,194.2 -4.9,189.6 0.1,190.2 								"/>
								<polygon class="st5" points="5,195.5 0,194.9 1,190.3 5.8,190.9 								"/>
								<polygon class="st5" points="11,196.3 5.9,195.6 6.8,191 11.7,191.6 								"/>
								<polygon class="st5" points="17.1,197 12,196.4 12.7,191.7 17.5,192.3 								"/>
								<polygon class="st5" points="23,197.8 18.1,197.1 18.5,192.5 23.4,193.1 								"/>
								<polygon class="st5" points="29.1,198.5 24.1,197.9 24.4,193.2 29.3,193.8 								"/>
								<polygon class="st5" points="35.1,199.3 30.1,198.6 30.2,193.9 35.1,194.5 								"/>
								<polygon class="st5" points="41.2,200 36.1,199.4 36.1,194.7 41,195.3 								"/>
								<polygon class="st5" points="47.1,200.8 42.2,200.1 41.9,195.4 46.8,196 								"/>
								<polygon class="st5" points="53.2,201.5 48.1,200.9 47.7,196.1 52.6,196.7 								"/>
								<polygon class="st5" points="59.2,202.3 54.2,201.6 53.6,196.8 58.4,197.4 								"/>
								<polygon class="st5" points="65.2,203 60.2,202.4 59.4,197.6 64.3,198.2 								"/>
								<polygon class="st5" points="71.2,203.8 66.3,203.1 65.3,198.3 70.1,198.9 								"/>
								<polygon class="st5" points="77.3,204.5 72.2,203.9 71.1,199 76,199.6 								"/>
								<polygon class="st5" points="83.4,205.3 78.3,204.6 77,199.7 81.8,200.3 								"/>
								<polygon class="st5" points="89.3,206 84.3,205.4 82.8,200.5 87.7,201.1 								"/>
							</g>
							<g>
								<g>
									<polygon class="st6" points="-42.5,176.7 -47.2,176.1 -44.5,171.7 -40,172.3 									"/>
									<polygon class="st6" points="-39.7,183.1 -50.6,181.8 -47.8,177.3 -37.4,178.6 									"/>
									<polygon class="st6" points="-42.6,189.3 -54,187.9 -51.3,183.5 -40.4,184.8 									"/>
									<polygon class="st6" points="-37,177.4 -41.6,176.8 -39.1,172.4 -34.7,173 									"/>
									<polygon class="st6" points="-31.5,178.1 -36,177.5 -33.8,173.1 -29.3,173.6 									"/>
									<polygon class="st6" points="-25.9,178.8 -30.5,178.2 -28.4,173.7 -23.9,174.3 									"/>
									<polygon class="st6" points="-20.4,179.5 -24.9,178.9 -23.1,174.4 -18.6,175 									"/>
									<polygon class="st6" points="-14.8,180.2 -19.5,179.6 -17.7,175.1 -13.2,175.6 									"/>
									<polygon class="st6" points="-9.2,180.9 -13.9,180.3 -12.3,175.7 -7.9,176.3 									"/>
									<polygon class="st6" points="-3.7,181.5 -8.4,181 -7,176.4 -2.5,177 									"/>
									<polygon class="st6" points="1.9,182.2 -2.8,181.7 -1.6,177.1 2.8,177.6 									"/>
									<polygon class="st6" points="7.3,182.9 2.8,182.3 3.7,177.7 8.2,178.3 									"/>
									<polygon class="st6" points="12.9,183.6 8.3,183 9.1,178.4 13.6,179 									"/>
									<polygon class="st6" points="18.4,184.3 13.9,183.7 14.5,179.1 19,179.6 									"/>
									<polygon class="st6" points="24,185 19.3,184.4 19.9,179.7 24.4,180.3 									"/>
									<polygon class="st6" points="29.6,185.7 24.9,185.1 25.3,180.4 29.7,181 									"/>
									<polygon class="st6" points="35.1,186.4 30.4,185.8 30.6,181.1 35.1,181.6 									"/>
									<polygon class="st6" points="40.7,187.1 36,186.5 36,181.7 40.5,182.3 									"/>
									<polygon class="st6" points="46.1,187.7 41.6,187.2 41.3,182.4 45.8,183 									"/>
									<polygon class="st6" points="51.7,188.4 47.1,187.9 46.7,183.1 51.2,183.6 									"/>
									<polygon class="st6" points="57.2,189.1 52.7,188.6 52.1,183.7 56.5,184.3 									"/>
									<polygon class="st6" points="62.8,189.8 58.2,189.2 57.4,184.4 61.9,185 									"/>
									<polygon class="st6" points="68.4,190.5 63.7,189.9 62.8,185.1 67.2,185.6 									"/>
									<polygon class="st6" points="73.9,191.2 69.3,190.6 68.1,185.7 72.6,186.3 									"/>
									<polygon class="st6" points="79.5,191.9 74.8,191.3 73.5,186.4 78,187 									"/>
									<polygon class="st6" points="85,192.6 80.4,192 78.9,187.1 83.3,187.6 									"/>
									<polygon class="st6" points="90.5,193.3 85.9,192.7 84.2,187.7 88.7,188.3 									"/>
									<polygon class="st6" points="-52.4,194.2 -57.7,193.6 -55,189.2 -50,189.8 									"/>
									<polygon class="st6" points="-46.2,195 -51.4,194.4 -48.9,189.9 -43.8,190.6 									"/>
									<polygon class="st6" points="-39.9,195.8 -45.2,195.1 -42.8,190.7 -37.8,191.3 									"/>
									<polygon class="st6" points="-33.7,196.6 -38.9,195.9 -36.8,191.4 -31.7,192.1 									"/>
									<polygon class="st6" points="-27.4,197.3 -32.6,196.7 -30.7,192.2 -25.6,192.8 									"/>
									<polygon class="st6" points="-21.2,198.1 -26.3,197.5 -24.7,192.9 -19.5,193.6 									"/>
									<polygon class="st6" points="59.9,208.2 -19.9,198.3 -18.3,193.7 59.2,203.4 									"/>
									<polygon class="st6" points="66.5,209 61.3,208.4 60.5,203.5 65.6,204.2 									"/>
									<polygon class="st6" points="72.7,209.8 67.6,209.1 66.5,204.3 71.6,204.9 									"/>
									<polygon class="st6" points="79,210.6 73.8,209.9 72.6,205 77.7,205.7 									"/>
									<polygon class="st6" points="85.2,211.3 80.1,210.7 78.8,205.8 83.8,206.4 									"/>
									<polygon class="st6" points="91.5,212.1 86.3,211.5 84.8,206.6 89.9,207.2 									"/>
									<polygon class="st6" points="97.7,212.9 92.6,212.3 90.9,207.3 95.9,207.9 									"/>
									<polygon class="st6" points="-34.2,183.8 -39,183.2 -36.7,178.7 -32,179.2 									"/>
									<polygon class="st6" points="-28.4,184.5 -33.2,183.9 -31,179.4 -26.4,179.9 									"/>
									<polygon class="st6" points="-22.6,185.2 -27.5,184.6 -25.5,180.1 -20.8,180.6 									"/>
									<polygon class="st6" points="-16.8,186 -21.7,185.4 -19.9,180.7 -15.2,181.3 									"/>
									<polygon class="st6" points="-11.1,186.7 -15.8,186.1 -14.3,181.4 -9.6,182 									"/>
									<polygon class="st6" points="-5.3,187.4 -10.1,186.8 -8.7,182.1 -4,182.7 									"/>
									<polygon class="st6" points="0.4,188.1 -4.3,187.5 -3.1,182.8 1.5,183.4 									"/>
									<polygon class="st6" points="6.3,188.8 1.4,188.2 2.5,183.5 7.2,184.1 									"/>
									<polygon class="st6" points="12,189.5 7.2,188.9 8.1,184.2 12.7,184.8 									"/>
									<polygon class="st6" points="17.8,190.3 12.9,189.7 13.6,184.9 18.3,185.5 									"/>
									<polygon class="st6" points="23.6,191 18.8,190.4 19.3,185.6 23.9,186.2 									"/>
									<polygon class="st6" points="29.3,191.7 24.5,191.1 24.8,186.3 29.5,186.9 									"/>
									<polygon class="st6" points="35.1,192.4 30.3,191.8 30.4,187 35.1,187.6 									"/>
									<polygon class="st6" points="40.9,193.1 36.1,192.5 36.1,187.7 40.7,188.3 									"/>
									<polygon class="st6" points="46.7,193.9 41.8,193.2 41.6,188.4 46.3,189 									"/>
									<polygon class="st6" points="52.4,194.6 47.7,194 47.2,189.1 51.8,189.7 									"/>
									<polygon class="st6" points="58.2,195.3 53.4,194.7 52.8,189.8 57.5,190.4 									"/>
									<polygon class="st6" points="63.9,196 59.2,195.4 58.4,190.5 63,191.1 									"/>
									<polygon class="st6" points="69.8,196.7 64.9,196.1 63.9,191.2 68.6,191.7 									"/>
									<polygon class="st6" points="75.6,197.4 70.7,196.8 69.6,191.9 74.3,192.4 									"/>
									<polygon class="st6" points="81.3,198.2 76.4,197.6 75.2,192.6 79.8,193.1 									"/>
									<polygon class="st6" points="87.1,198.9 82.3,198.3 80.8,193.3 85.4,193.8 									"/>
									<polygon class="st6" points="95.2,206.1 90.3,205.5 86.4,193.9 91,194.5 									"/>
									<polygon class="st6" points="-37.2,190 -42.1,189.4 -39.9,184.9 -35,185.5 									"/>
									<polygon class="st6" points="-31.1,190.7 -36.2,190.1 -34,185.6 -29.2,186.2 									"/>
									<polygon class="st6" points="-25.1,191.5 -30.1,190.9 -28.2,186.4 -23.3,187 									"/>
									<polygon class="st6" points="-19.1,192.2 -24.1,191.6 -22.3,187.1 -17.5,187.7 									"/>
									<polygon class="st6" points="-13.1,193 -18,192.4 -16.5,187.8 -11.6,188.4 									"/>
									<polygon class="st6" points="-7,193.7 -12.1,193.1 -10.6,188.5 -5.7,189.2 									"/>
									<polygon class="st6" points="-1,194.5 -6,193.9 -4.8,189.3 0.1,189.9 									"/>
									<polygon class="st6" points="5,195.2 0,194.6 1,190 5.9,190.6 									"/>
									<polygon class="st6" points="11,196 6,195.3 6.9,190.7 11.7,191.3 									"/>
									<polygon class="st6" points="17.1,196.7 12,196.1 12.7,191.4 17.6,192.1 									"/>
									<polygon class="st6" points="23.1,197.5 18.1,196.9 18.6,192.2 23.4,192.8 									"/>
									<polygon class="st6" points="29.1,198.2 24.1,197.6 24.4,192.9 29.3,193.5 									"/>
									<polygon class="st6" points="35.2,199 30.1,198.3 30.3,193.6 35.1,194.2 									"/>
									<polygon class="st6" points="41.2,199.7 36.2,199.1 36.1,194.4 41,195 									"/>
									<polygon class="st6" points="47.2,200.5 42.2,199.8 41.9,195.1 46.9,195.7 									"/>
									<polygon class="st6" points="53.2,201.2 48.2,200.6 47.7,195.8 52.6,196.4 									"/>
									<polygon class="st6" points="59.3,202 54.2,201.3 53.6,196.5 58.5,197.1 									"/>
									<polygon class="st6" points="65.2,202.7 60.3,202.1 59.5,197.3 64.3,197.9 									"/>
									<polygon class="st6" points="71.3,203.5 66.3,202.8 65.3,198 70.2,198.6 									"/>
									<polygon class="st6" points="77.3,204.2 72.3,203.6 71.2,198.7 76,199.3 									"/>
									<polygon class="st6" points="83.4,205 78.3,204.3 77,199.4 81.9,200 									"/>
									<polygon class="st6" points="89.3,205.7 84.4,205.1 82.9,200.2 87.7,200.8 									"/>
								</g>
							</g>
						</g>
					</g>
					<g>
						<g>
							<path class="st7" d="M59.7,106.6c0,0,0.1,0.1,0.2,0.2c0.2,0.1,0.4,0.3,0.6,0.6c0.5,0.5,1.4,1.3,2.2,2.4
								c0.4,0.6,1,1.2,1.4,1.9c0.5,0.8,0.9,1.5,1.4,2.4c0.5,0.9,0.9,1.9,1.2,3c0.4,1.1,0.7,2.2,1,3.4c0.2,1.2,0.4,2.6,0.5,3.9
								s0.1,2.7,0,4.2c-0.1,1.4-0.4,2.9-0.7,4.5c-0.3,1.5-0.8,3-1.4,4.5c-1.2,3-2.7,5.9-4.7,8.5c-1,1.3-2,2.6-3.2,3.8
								c-1.2,1.2-2.4,2.3-3.7,3.4c-2.7,2.2-5.7,3.8-8.8,5.1c-3.1,1.2-6.3,2-9.4,2.5s-6.2,0.4-9,0.2c-2.9-0.3-5.5-1-7.9-2.1
								c-1.1-0.5-2.3-1.2-3.2-1.9c-0.9-0.7-1.7-1.5-2.4-2.4c-0.6-0.9-1.1-1.8-1.3-2.7c-0.3-0.9-0.3-1.7-0.3-2.5c0-0.7,0.1-1.4,0.2-2
								c0-0.3,0.2-0.5,0.2-0.8c0-0.2,0.1-0.4,0.2-0.6c0.1-0.4,0.3-0.6,0.3-0.8c0.1-0.2,0.1-0.3,0.1-0.3l0.3,0.1c0,0,0,0.1-0.1,0.3
								c0,0.2-0.2,0.5-0.2,0.8c-0.2,0.7-0.4,1.8-0.3,3.2c0,0.7,0.2,1.4,0.4,2.2c0.3,0.7,0.7,1.5,1.3,2.3c1.2,1.5,3.1,2.7,5.2,3.6
								c2.2,0.9,4.8,1.4,7.5,1.5c2.7,0.1,5.5,0,8.5-0.5c2.9-0.5,5.9-1.4,8.7-2.5c2.9-1.3,5.6-2.8,8-4.7c2.5-2,4.7-4.3,6.6-6.7
								c1.9-2.5,3.5-5.1,4.6-7.9c1.1-2.7,1.9-5.5,2.2-8.2c0.3-2.7,0.3-5.3-0.1-7.6c-0.3-2.4-1-4.5-1.6-6.3s-1.5-3.2-2.3-4.4
								c-0.8-1.1-1.5-2-1.9-2.6c-0.3-0.2-0.4-0.5-0.5-0.7c-0.1-0.1-0.2-0.2-0.2-0.2L59.7,106.6z"/>
							<g>
								<polyline class="st8" points="48.8,83.9 62.1,86 62.9,88.3 53,92.5 								"/>
								<polyline class="st8" points="40.1,89.8 37.4,103 39.3,104.8 46.6,96.9 								"/>
								<g>
									<path class="st9" d="M35.8,67.5l-3.2,2.2L29.4,72c0,0-0.9,4.3,4.7,12.7c5.7,8.4,13.5,15,13.5,15l3.6-2.5l3.6-2.5
										c0,0-3.3-9.7-9-18.1C40.1,68.2,35.8,67.5,35.8,67.5z"/>
									<g>
										<g>
											<circle class="st10" cx="37.8" cy="77.5" r="3"/>
											<path class="st11" d="M39.8,80.4c1.6-1.1,2-3.4,0.9-5c-1.1-1.6-3.4-2-5-0.9c-1.6,1.1-2,3.4-0.9,5
												C36,81.1,38.2,81.5,39.8,80.4z M36.4,75.4c1.1-0.8,2.7-0.5,3.4,0.6c0.8,1.1,0.5,2.7-0.6,3.4s-2.7,0.5-3.4-0.6
												S35.3,76.2,36.4,75.4z"/>
										</g>
										<g>
											<circle class="st10" cx="42.9" cy="84.8" r="1.4"/>
											<path class="st11" d="M43.8,86.2c0.8-0.5,1-1.6,0.5-2.5c-0.5-0.8-1.6-1-2.5-0.5c-0.8,0.5-1,1.6-0.5,2.5
												C42,86.6,43.1,86.8,43.8,86.2z M42.2,83.8c0.5-0.3,1.3-0.2,1.7,0.3c0.3,0.5,0.2,1.3-0.3,1.7c-0.5,0.3-1.3,0.2-1.7-0.3
												C41.5,84.9,41.7,84.2,42.2,83.8z"/>
										</g>
										<g>
											<circle class="st10" cx="46.6" cy="90.1" r="1.4"/>
											<path class="st11" d="M47.6,91.6c0.8-0.5,1-1.6,0.5-2.5c-0.5-0.8-1.6-1-2.5-0.5c-0.8,0.5-1,1.6-0.5,2.5
												C45.7,92,46.8,92.1,47.6,91.6z M45.9,89.2c0.5-0.3,1.3-0.2,1.7,0.3c0.3,0.5,0.2,1.3-0.3,1.7c-0.5,0.3-1.3,0.2-1.7-0.3
												C45.2,90.3,45.3,89.5,45.9,89.2z"/>
										</g>
									</g>
								</g>
								<g>
									<path class="st12" d="M48.9,99.3l5.8-3.6c0,0,3.1,2.7,4.1,7.3c0,0-0.8-0.4-1.9-0.7c0,0,0.9,1.6,0.7,4
										C57.6,106.1,52.7,107.2,48.9,99.3z"/>
									<path class="st13" d="M49.4,99l4.5-2.9c0,0,2.5,1.7,3.3,5.3c0,0-0.9-0.3-1.5-0.7c0,0,0.7,1.7,0.6,3.6
										C56.3,104.3,52.5,105.2,49.4,99z"/>
									<path class="st14" d="M55.6,94.3c0.2,0.2,0.1,0.5-0.1,0.7l-8,5.6c-0.2,0.2-0.5,0.1-0.7-0.1l0,0c-0.2-0.2-0.1-0.5,0.1-0.7
										l8-5.6C55.2,93.9,55.5,94,55.6,94.3L55.6,94.3z"/>
								</g>
								<g>
									<polygon class="st8" points="28.9,72.6 27.5,62.3 36.6,67.3 									"/>
									<path class="st14" d="M37.2,67.5c0.1,0.2,0,0.4-0.1,0.5l-7.7,5.3c-0.2,0.1-0.4,0-0.5-0.1l0,0c-0.1-0.2,0-0.4,0.1-0.5
										l7.7-5.3C36.8,67.3,37,67.3,37.2,67.5L37.2,67.5z"/>
								</g>
							</g>
						</g>
						<g>
							<g>
								<g>
									<g>
										<polygon class="st15" points="38.6,148 37.8,147.6 37.2,148.2 37.2,147.4 36.3,147.2 37.1,146.7 36.8,146 37.6,146.4 
											38.1,145.7 38.1,146.5 39,146.7 38.3,147.2 										"/>
										<polygon class="st15" points="29.6,149 28.5,148.5 27.7,149.3 27.7,148.2 26.6,147.9 27.5,147.3 27.2,146.2 28.3,146.7 
											29,145.9 29,147 30.2,147.3 29.2,147.9 										"/>
										<polygon class="st15" points="33.4,140 32.8,139.7 32.5,140.2 32.5,139.6 31.9,139.5 32.4,139.2 32.2,138.6 32.7,138.9 
											33.1,138.5 33.1,139.1 33.7,139.1 33.3,139.5 										"/>
									</g>
									<g>
										<polygon class="st15" points="56.2,112.6 55.9,113.4 56.5,113.9 55.7,114 55.6,114.7 55.1,114.2 54.3,114.4 54.6,113.6 
											54,113.1 54.8,113 54.9,112.2 55.4,112.9 										"/>
										<polygon class="st15" points="57.9,121.5 57.5,122.5 58.4,123.3 57.2,123.4 57,124.5 56.3,123.6 55.2,124.1 55.7,123 
											54.8,122.3 55.9,122 56.1,121 56.8,121.9 										"/>
										<polygon class="st15" points="48.6,118.3 48.4,118.8 48.9,119.2 48.3,119.3 48.2,119.8 47.9,119.4 47.3,119.6 47.6,119.1 
											47.1,118.7 47.7,118.6 47.7,118.1 48.1,118.6 										"/>
									</g>
									<g>
										<polygon class="st15" points="16.5,115.6 15.9,115.1 15.2,115.5 15.4,114.6 14.7,114.2 15.5,114 15.5,113.2 16,113.8 
											16.8,113.4 16.6,114.1 17.3,114.5 16.5,114.7 										"/>
										<polygon class="st15" points="7.6,113.9 6.8,113.1 5.8,113.7 6.1,112.6 5.1,112 6.2,111.6 6.1,110.5 7,111.3 8,110.8 
											7.7,111.8 8.7,112.5 7.6,112.7 										"/>
										<polygon class="st15" points="13.9,106.4 13.5,106.1 13,106.3 13.2,105.8 12.7,105.5 13.2,105.4 13.2,104.8 13.7,105.2 
											14.1,104.9 14,105.5 14.5,105.7 14,105.9 										"/>
									</g>
								</g>
								<g>
									<g>
										<path class="st16" d="M33.5,107.8c0,0,0-0.4,0-1c0-0.6,0.1-1.4,0.2-2.3c0-0.4,0-0.8,0-1.2s0.1-0.7,0.2-1
											c0.2-0.6,0.3-1,0.3-1l0.1,0c0,0,0,0.4,0.1,1c0,0.3,0,0.7,0,1c0,0.4-0.2,0.8-0.2,1.2c-0.1,0.8-0.3,1.6-0.4,2.3
											C33.6,107.4,33.5,107.8,33.5,107.8L33.5,107.8z"/>
										<path class="st16" d="M42.7,112.9c0,0,0.2-0.3,0.7-0.6c0.4-0.3,1-0.8,1.6-1.2c0.2-0.3,0.6-0.4,0.8-0.7
											c0.2-0.2,0.5-0.3,0.8-0.5c0.4-0.2,0.8-0.3,0.8-0.3l0,0c0,0-0.2,0.3-0.6,0.7c-0.2,0.2-0.5,0.4-0.7,0.6
											c-0.3,0.2-0.5,0.3-0.9,0.6c-0.7,0.4-1.2,0.8-1.6,1C43,112.8,42.7,112.9,42.7,112.9L42.7,112.9z"/>
										<path class="st16" d="M24.3,110.7c0,0-0.3-0.2-0.6-0.6c-0.4-0.3-0.9-0.9-1.3-1.4c-0.3-0.2-0.5-0.5-0.7-0.8
											c-0.2-0.2-0.4-0.6-0.5-0.8c-0.2-0.4-0.4-0.9-0.4-0.9l0,0c0,0,0.4,0.1,0.7,0.5c0.2,0.2,0.5,0.4,0.6,0.7
											c0.2,0.2,0.4,0.6,0.6,0.9c0.4,0.6,0.9,1.1,1.2,1.6C24.1,110.3,24.3,110.7,24.3,110.7L24.3,110.7z"/>
										<path class="st17" d="M28,107.4c0,0-0.4-1-0.8-1.9c-0.1-0.2-0.2-0.4-0.2-0.7c-0.1-0.2,0-0.4-0.1-0.6
											c0-0.4,0.1-0.7,0.1-0.7l0.1,0c0,0,0.2,0.2,0.3,0.5c0.1,0.2,0.1,0.4,0.2,0.6c0.1,0.2,0,0.5,0.1,0.7
											C28,106.4,28.1,107.4,28,107.4L28,107.4z"/>
										<path class="st17" d="M39.4,108.8c0,0,0.3-1,0.7-1.8c0.1-0.2,0.2-0.5,0.3-0.7c0.1-0.2,0.2-0.4,0.4-0.6
											c0.2-0.3,0.5-0.4,0.5-0.4l0.1,0c0,0,0,0.3-0.1,0.7c0,0.2-0.1,0.4-0.3,0.6c-0.1,0.2-0.2,0.4-0.4,0.7
											C40.1,108.1,39.4,108.8,39.4,108.8L39.4,108.8z"/>
									</g>
									<g>
										<path class="st16" d="M6.6,132c0,0-0.4,0.1-0.9,0.3c-0.6,0.1-1.4,0.3-2.2,0.5c-0.4,0.1-0.8,0.2-1.2,0.4
											c-0.4,0-0.7,0.1-1,0.2c-0.6,0-1,0-1,0l0-0.1c0,0,0.3-0.3,1-0.4c0.3-0.1,0.6-0.2,1-0.3s0.8-0.1,1.2-0.1
											c0.8-0.1,1.6-0.2,2.3-0.3C6.2,132.1,6.6,132,6.6,132L6.6,132z"/>
										<path class="st16" d="M8.6,121.7c0,0-0.3-0.1-0.7-0.5c-0.5-0.3-1-0.6-1.7-1c-0.3-0.2-0.7-0.4-0.9-0.5
											c-0.3-0.2-0.6-0.4-0.7-0.6c-0.4-0.3-0.6-0.7-0.6-0.7l0-0.1c0,0,0.4,0.1,0.9,0.3c0.3,0.1,0.5,0.3,0.7,0.5
											c0.3,0.2,0.5,0.5,0.8,0.7c0.5,0.5,1.1,0.9,1.6,1.3C8.4,121.4,8.7,121.6,8.6,121.7L8.6,121.7z"/>
										<path class="st16" d="M12.4,139.9c0,0-0.1,0.3-0.4,0.9c-0.3,0.5-0.5,1.1-0.9,1.8c-0.1,0.3-0.3,0.7-0.5,0.9
											c-0.1,0.3-0.4,0.6-0.5,0.7c-0.4,0.5-0.7,0.6-0.7,0.6l-0.1,0c0,0,0-0.4,0.3-0.9c0.1-0.3,0.3-0.6,0.4-0.9
											c0.1-0.3,0.4-0.6,0.6-0.8c0.4-0.6,0.9-1.2,1.1-1.6C12.1,140.2,12.3,139.9,12.4,139.9L12.4,139.9z"/>
										<path class="st17" d="M8.1,137.4c0,0-0.8,0.7-1.6,1.3c-0.2,0.2-0.3,0.4-0.6,0.4c-0.2,0.2-0.4,0.2-0.5,0.3
											c-0.3,0.2-0.6,0.1-0.6,0.1l0,0c0,0,0.1-0.3,0.4-0.6c0.1-0.2,0.3-0.3,0.5-0.4c0.2-0.1,0.4-0.2,0.6-0.3
											C7.1,137.7,8.1,137.3,8.1,137.4L8.1,137.4z"/>
										<path class="st17" d="M5.8,126.1c0,0-1,0-2-0.1c-0.3,0-0.5-0.1-0.7-0.1c-0.2,0-0.5-0.2-0.6-0.2c-0.4-0.1-0.6-0.4-0.6-0.4
											l0-0.1c0,0,0.3-0.1,0.6-0.1c0.2,0,0.4,0,0.6,0.1c0.2,0,0.5,0.2,0.7,0.2C4.9,125.8,5.8,126.1,5.8,126.1L5.8,126.1z"/>
									</g>
									<g>
										<path class="st16" d="M54.7,137.7c0,0,0.3,0,0.9,0.2c0.5,0.2,1.2,0.3,1.8,0.5c0.3,0.1,0.7,0.2,1,0.3s0.6,0.3,0.8,0.4
											c0.5,0.3,0.7,0.5,0.7,0.5l0,0.1c0,0-0.4,0-0.9-0.1c-0.3,0-0.6-0.2-0.9-0.2c-0.3-0.1-0.6-0.3-1-0.4
											c-0.7-0.3-1.2-0.6-1.7-0.7C54.9,137.8,54.7,137.7,54.7,137.7L54.7,137.7z"/>
										<path class="st16" d="M48.8,144.3c0,0,0.2,0.2,0.3,0.6c0.2,0.4,0.5,1,0.7,1.5c0.2,0.3,0.3,0.5,0.4,0.8
											c0.1,0.2,0.2,0.5,0.2,0.7c0.1,0.4,0.1,0.7,0.1,0.7l0,0c0,0-0.3-0.2-0.4-0.7c-0.1-0.2-0.2-0.4-0.3-0.6
											c-0.1-0.2-0.2-0.5-0.3-0.8c-0.2-0.5-0.4-1.2-0.5-1.6C48.8,144.6,48.7,144.3,48.8,144.3L48.8,144.3z"/>
										<path class="st16" d="M54,129.6c0,0,0.2-0.2,0.7-0.4c0.3-0.3,0.9-0.6,1.4-0.9c0.2-0.2,0.5-0.3,0.8-0.5
											c0.2-0.2,0.5-0.2,0.7-0.3c0.4-0.1,0.7-0.2,0.7-0.2l0,0c0,0-0.2,0.3-0.6,0.5c-0.2,0.2-0.4,0.2-0.7,0.4
											c-0.2,0.2-0.5,0.2-0.9,0.4c-0.5,0.2-1.1,0.5-1.5,0.7C54.2,129.5,54,129.6,54,129.6L54,129.6z"/>
										<path class="st17" d="M55.9,133.2c0,0,0.2-0.1,0.5-0.1c0.3-0.1,0.7-0.1,1.1-0.2c0.2-0.1,0.4,0,0.6-0.1
											c0.2,0,0.4,0,0.5,0.1c0.3,0,0.6,0.2,0.6,0.2l0,0.1c0,0-0.2,0.2-0.5,0.2c-0.2,0.1-0.3,0.1-0.5,0.1c-0.2,0-0.4,0-0.6-0.1
											c-0.4,0-0.8,0-1.2,0C56.1,133.4,55.9,133.3,55.9,133.2L55.9,133.2z"/>
										<path class="st17" d="M52.7,142.3c0,0,0.2,0.1,0.5,0.3c0.3,0.1,0.6,0.5,0.9,0.7c0.2,0.1,0.4,0.2,0.5,0.4
											c0.2,0.1,0.3,0.2,0.3,0.4c0.2,0.2,0.2,0.4,0.2,0.4l0,0c0,0-0.2,0-0.5-0.2c-0.2-0.1-0.3-0.1-0.5-0.4
											c-0.2-0.1-0.3-0.3-0.4-0.5c-0.3-0.3-0.6-0.6-0.8-0.9C52.9,142.5,52.7,142.4,52.7,142.3L52.7,142.3z"/>
									</g>
								</g>
							</g>
							<g>
								<g>
									<g>
										<g class="st4">
											<path class="st18" d="M42.1,118.3l-1.7-2.3c-0.3-0.3-0.7-0.4-1-0.1l-1,0.7c-0.6-0.4-1-0.7-1.6-1l0.2-1.2
												c0-0.4-0.2-0.7-0.5-0.8l-2.9-0.5c-0.4,0-0.7,0.2-0.8,0.5l-0.2,1.1c-0.7,0-1.5,0.2-2.2,0.4l-0.6-0.9
												c-0.3-0.3-0.7-0.4-1-0.1l-2.3,1.7c-0.3,0.3-0.4,0.7-0.1,1l0.5,0.7c-0.5,0.5-0.9,1.2-1.2,1.8l-0.8-0.1
												c-0.4,0-0.7,0.2-0.8,0.5l-0.5,2.9c0,0.4,0.2,0.7,0.5,0.8l0.6,0.1c0,0.9,0.2,1.7,0.6,2.6l-0.4,0.3c-0.3,0.3-0.4,0.7-0.1,1
												l1.7,2.3c0.3,0.3,0.7,0.4,1,0.1l0.3-0.3c0.6,0.6,1.4,1,2.1,1.3l0,0.4c0,0.4,0.2,0.7,0.5,0.8l2.9,0.5
												c0.4,0,0.7-0.2,0.8-0.5l0.1-0.5c0.9-0.1,1.7-0.3,2.6-0.7l0.3,0.4c0.3,0.3,0.7,0.4,1,0.1l2.3-1.7c0.3-0.3,0.4-0.7,0.1-1
												l-0.4-0.7c0.5-0.5,0.8-1.2,1-1.9l0.9,0.1c0.4,0,0.7-0.2,0.8-0.5l0.5-2.9c0-0.4-0.2-0.7-0.5-0.8l-1-0.1
												c-0.1-0.7-0.3-1.5-0.6-2.2L42,119C42.2,119,42.2,118.6,42.1,118.3z M36.1,121.1c1.1,1.5,0.8,3.8-0.7,4.9
												c-1.5,1.1-3.8,0.8-4.9-0.7c-1.2-1.6-0.8-3.8,0.7-4.9C32.7,119.2,34.9,119.5,36.1,121.1z"/>
											<path class="st18" d="M29.2,126.2l-1.4-2.5c-0.2-0.3-0.5-0.5-0.9-0.2l-1.1,0.6c-0.4-0.5-0.9-0.8-1.5-1.2l0.3-1.2
												c0.1-0.4-0.1-0.7-0.5-0.9l-2.7-0.8c-0.4-0.1-0.7,0.1-0.9,0.5l-0.3,1.1c-0.7-0.1-1.5,0-2.2,0.2l-0.5-1
												c-0.2-0.3-0.5-0.5-0.9-0.2l-2.5,1.4c-0.3,0.2-0.5,0.5-0.2,0.9l0.4,0.8c-0.6,0.5-1,1.1-1.4,1.6l-0.8-0.2
												c-0.4-0.1-0.7,0.1-0.9,0.5l-0.8,2.7c-0.1,0.4,0.1,0.7,0.4,0.9l0.6,0.2c-0.1,0.9,0,1.8,0.2,2.6l-0.4,0.2
												c-0.3,0.2-0.5,0.5-0.2,0.9l1.4,2.5c0.2,0.3,0.5,0.5,0.9,0.2l0.4-0.2c0.5,0.6,1.2,1.2,1.9,1.5l-0.1,0.4
												c-0.1,0.4,0.1,0.7,0.5,0.9l2.7,0.8c0.4,0.1,0.7-0.1,0.9-0.5l0.2-0.5c0.9,0,1.8-0.1,2.7-0.4l0.3,0.5
												c0.2,0.3,0.5,0.5,0.9,0.2l2.5-1.4c0.3-0.2,0.5-0.5,0.2-0.9l-0.4-0.7c0.5-0.5,0.9-1.1,1.3-1.7l0.9,0.2
												c0.4,0.1,0.7-0.1,0.9-0.5l0.8-2.7c0.1-0.4-0.1-0.7-0.5-0.9l-1-0.3c0-0.7-0.1-1.5-0.3-2.3l1-0.6
												C29.3,126.9,29.4,126.5,29.2,126.2z M23.8,127.6c1.2,2.2,0.4,4.9-1.8,6.1s-4.9,0.4-6.1-1.8s-0.4-4.9,1.8-6.1
												C19.8,124.7,22.6,125.5,23.8,127.6z"/>
											<path class="st18" d="M53.4,136.4l-0.3-1.5c-0.1-0.2-0.3-0.3-0.5-0.3l-0.6,0.1c-0.2-0.3-0.3-0.5-0.6-0.9l0.4-0.6
												c0.1-0.2,0-0.4-0.1-0.5l-1.3-0.9c-0.2-0.1-0.4,0-0.5,0.1l-0.4,0.5c-0.4-0.1-0.8-0.2-1.2-0.2l-0.1-0.5
												c-0.1-0.2-0.3-0.3-0.5-0.3l-1.5,0.3c-0.2,0.1-0.3,0.3-0.3,0.5l0,0.4c-0.3,0.2-0.6,0.3-1,0.6l-0.4-0.2
												c-0.2-0.1-0.4,0-0.5,0.1l-0.9,1.3c-0.1,0.2,0,0.4,0.1,0.5l0.3,0.1c-0.2,0.5-0.3,0.9-0.3,1.4l-0.3,0.1
												c-0.2,0.1-0.3,0.3-0.3,0.5l0.3,1.5c0.1,0.2,0.3,0.3,0.5,0.3l0.2-0.1c0.1,0.4,0.4,0.8,0.7,1.1l-0.1,0.2
												c-0.1,0.2,0,0.4,0.1,0.5l1.3,0.9c0.2,0.1,0.4,0,0.5-0.1l0.1-0.2c0.5,0.2,0.9,0.2,1.4,0.3l0.1,0.3
												c0.1,0.2,0.3,0.3,0.5,0.3l1.5-0.3c0.2-0.1,0.3-0.3,0.3-0.5l0-0.4c0.3-0.2,0.7-0.4,0.9-0.7l0.4,0.2c0.2,0.1,0.4,0,0.5-0.1
												l0.9-1.3c0.1-0.2,0-0.4-0.1-0.5l-0.5-0.3c0.1-0.4,0.2-0.8,0.2-1.2l0.6-0.1C53.3,136.8,53.4,136.6,53.4,136.4z
												 M50.4,136.4c0.2,1.2-0.5,2.6-1.9,2.8c-1.2,0.2-2.6-0.5-2.8-1.9c-0.2-1.2,0.5-2.6,1.9-2.8
												C48.9,134.3,50.1,135.1,50.4,136.4z"/>
										</g>
										<g>
											<g>
												<path class="st19" d="M41.8,117.2l-1.7-2.3c-0.3-0.3-0.7-0.4-1-0.1l-1,0.7c-0.6-0.4-1-0.7-1.6-1l0.2-1.2
													c0-0.4-0.2-0.7-0.5-0.8l-2.9-0.5c-0.4,0-0.7,0.2-0.8,0.5l-0.2,1.1c-0.7,0-1.5,0.2-2.2,0.4l-0.6-0.9
													c-0.3-0.3-0.7-0.4-1-0.1l-2.3,1.7c-0.3,0.3-0.4,0.7-0.1,1l0.5,0.7c-0.5,0.5-0.9,1.2-1.2,1.8l-0.8-0.1
													c-0.4,0-0.7,0.2-0.8,0.5l-0.5,2.9c0,0.4,0.2,0.7,0.5,0.8l0.6,0.1c0,0.9,0.2,1.7,0.6,2.6l-0.4,0.3
													c-0.3,0.3-0.4,0.7-0.1,1l1.7,2.3c0.3,0.3,0.7,0.4,1,0.1l0.3-0.3c0.6,0.6,1.4,1,2.1,1.3l0,0.4c0,0.4,0.2,0.7,0.5,0.8
													l2.9,0.5c0.4,0,0.7-0.2,0.8-0.5l0.1-0.5c0.9-0.1,1.7-0.3,2.6-0.7l0.3,0.4c0.3,0.3,0.7,0.4,1,0.1l2.3-1.7
													c0.3-0.3,0.4-0.7,0.1-1l-0.4-0.7c0.5-0.5,0.8-1.2,1-1.9l0.9,0.1c0.4,0,0.7-0.2,0.8-0.5l0.5-2.9c0-0.4-0.2-0.7-0.5-0.8
													l-1-0.1c-0.1-0.7-0.3-1.5-0.6-2.2l0.9-0.7C42,117.9,42.1,117.5,41.8,117.2z M35.9,120c1.1,1.5,0.8,3.8-0.7,4.9
													c-1.5,1.1-3.8,0.8-4.9-0.7c-1.2-1.6-0.8-3.8,0.7-4.9C32.5,118,34.7,118.4,35.9,120z"/>
												<path class="st20" d="M29,125.1l-1.4-2.5c-0.2-0.3-0.5-0.5-0.9-0.2l-1.1,0.6c-0.4-0.5-0.9-0.8-1.5-1.2l0.3-1.2
													c0.1-0.4-0.1-0.7-0.5-0.9l-2.8-0.9c-0.4-0.1-0.7,0.1-0.9,0.5l-0.3,1.1c-0.7-0.1-1.5,0-2.2,0.2l-0.5-1
													c-0.2-0.3-0.5-0.5-0.9-0.2l-2.5,1.3c-0.3,0.2-0.5,0.5-0.2,0.9l0.4,0.8c-0.6,0.5-1,1.1-1.4,1.6l-0.8-0.2
													c-0.4-0.1-0.7,0.1-0.9,0.5l-0.8,2.7c-0.1,0.4,0.1,0.7,0.4,0.9l0.6,0.2c-0.1,0.9,0,1.8,0.2,2.6L11,131
													c-0.3,0.3-0.4,0.7-0.2,1l1.4,2.5c0.2,0.3,0.5,0.5,0.9,0.2l0.4-0.2c0.5,0.6,1.2,1.2,1.9,1.5l-0.1,0.4
													c-0.1,0.4,0.1,0.7,0.5,0.9l2.7,0.8c0.4,0.1,0.7-0.1,0.9-0.5l0.2-0.5c0.9,0,1.8-0.1,2.7-0.4l0.3,0.5
													c0.2,0.3,0.5,0.5,0.9,0.2l2.5-1.4c0.3-0.2,0.5-0.5,0.2-0.9l-0.4-0.7c0.5-0.5,0.9-1.1,1.3-1.7l0.9,0.2
													c0.4,0.1,0.7-0.1,0.9-0.5l0.8-2.7c0.1-0.4-0.1-0.7-0.5-0.9l-1-0.3c0-0.7-0.1-1.5-0.3-2.3l1-0.6
													C29,125.8,29.2,125.4,29,125.1z M23.6,126.6c1.2,2.2,0.4,4.9-1.8,6.1s-4.9,0.4-6.1-1.8s-0.4-4.9,1.8-6.1
													S22.4,124.4,23.6,126.6z"/>
												<path class="st20" d="M53.1,135.4l-0.3-1.5c-0.1-0.2-0.3-0.3-0.5-0.3l-0.6,0.1c-0.2-0.3-0.3-0.5-0.6-0.9l0.4-0.6
													c0.1-0.2,0-0.4-0.1-0.5l-1.3-0.9c-0.2-0.1-0.4,0-0.5,0.1l-0.4,0.5c-0.4-0.1-0.8-0.2-1.2-0.2l-0.1-0.5
													c-0.1-0.2-0.3-0.3-0.5-0.3l-1.5,0.3c-0.2,0.1-0.3,0.3-0.3,0.5l0,0.4c-0.3,0.2-0.6,0.3-1,0.6l-0.4-0.2
													c-0.2-0.1-0.4,0-0.5,0.1l-0.9,1.3c-0.1,0.2,0,0.4,0.1,0.5l0.3,0.1c-0.2,0.5-0.3,0.9-0.3,1.4l-0.3,0.1
													c-0.2,0.1-0.3,0.3-0.3,0.5l0.3,1.5c0.1,0.2,0.3,0.3,0.5,0.3l0.2-0.1c0.1,0.4,0.4,0.8,0.7,1.1l-0.1,0.2
													c-0.1,0.2,0,0.4,0.1,0.5l1.3,0.9c0.2,0.1,0.4,0,0.5-0.1l0.1-0.2c0.5,0.2,0.9,0.2,1.4,0.3l0.1,0.3
													c0.1,0.2,0.3,0.3,0.5,0.3l1.7-0.4c0.2-0.1,0.3-0.3,0.3-0.5l0-0.4c0.3-0.2,0.7-0.4,0.9-0.7l0.4,0.2
													c0.2,0.1,0.4,0,0.5-0.1l0.9-1.3c0.1-0.2,0-0.4-0.1-0.5L52,137c0.1-0.4,0.2-0.8,0.2-1.2l0.6-0.1
													C53.1,135.8,53.2,135.6,53.1,135.4z M50.2,135.3c0.2,1.2-0.5,2.6-1.9,2.8c-1.2,0.2-2.6-0.5-2.8-1.9
													c-0.2-1.2,0.5-2.6,1.9-2.8C48.7,133.1,50,134,50.2,135.3z"/>
											</g>
										</g>
									</g>
									<g>
										<circle class="st20" cx="32.9" cy="122.3" r="3.4"/>
										<circle class="st21" cx="32.9" cy="122.1" r="1.9"/>
									</g>
								</g>
								<g>
									<g>
										<path class="st22" d="M19.1,133.5c-1.6-0.2-2.9-1.1-3.6-2.4c-0.7-1.2-0.7-2.5-0.3-3.7c0.5-1.3,1.4-2.2,2.7-3l11.8-5.3
											c1.4-0.7,2.8-1.1,3.9-0.9c1.2,0.1,2.1,0.8,2.7,1.9c0.6,1.2,0.6,2.4,0.1,3.5c-0.5,1-1.4,1.9-2.9,2.7l-11,6.5
											C21.5,133.4,20.3,133.6,19.1,133.5z M33.5,119c-1-0.1-2.2,0.1-3.5,0.9l-11.8,5.3c-1.1,0.6-1.9,1.5-2.2,2.5
											c-0.3,1.1-0.3,2.2,0.3,3.2c0.6,1.1,1.7,1.8,3.1,2c1,0.1,2.1,0,3.1-0.6l11-6.5c1.2-0.7,2.1-1.5,2.5-2.4
											c0.4-1,0.4-1.9-0.1-2.8C35.3,119.6,34.5,119.1,33.5,119z"/>
									</g>
									<g>
										<path class="st22" d="M47.7,138.6c-0.9-0.1-1.8-0.6-2.8-1.5L30.4,125c-1.9-1.8-1.5-4.2-0.2-5.7l0-0.1c0.7-0.8,2-1.2,3.2-1
											c0.9,0.1,1.7,0.5,2.5,1.1l13.1,13.1c1.8,1.6,2.3,3.6,1.2,5.2l0,0.1l-0.2,0.2C49.3,138.5,48.6,138.7,47.7,138.6z
											 M30.7,119.7L30.7,119.7c-1.1,1.2-1.4,3.2,0.1,4.8l14.4,12.2c0.8,0.7,1.7,1.2,2.5,1.3c0.7,0.1,1.2-0.1,1.7-0.5l0.1-0.2
											c0.9-1.3,0.5-2.9-1.1-4.3l-13.1-13.1c-0.7-0.6-1.5-0.9-2-1C32.3,118.9,31.3,119.2,30.7,119.7z"/>
									</g>
								</g>
							</g>
						</g>
					</g>
				</g>
			</g>
		</g>
	</g>
</g>
</svg>
