<?xml version="1.0" encoding="utf-8"?>
<!-- Generator: Adobe Illustrator 19.0.0, SVG Export Plug-In . SVG Version: 6.00 Build 0)  -->
<svg version="1.1" id="Capa_1" xmlns="http://www.w3.org/2000/svg" xmlns:xlink="http://www.w3.org/1999/xlink" x="0px" y="0px"
	 viewBox="213.3 124.8 50 50" style="enable-background:new 213.3 124.8 50 50;" xml:space="preserve">
<style type="text/css">
	.st0{fill:#FFFFFF;}
</style>
<g>
	<path class="st0" d="M259.9,137.5c-2.2-3.9-5.3-7-9.1-9.3c-3.8-2.3-8-3.4-12.5-3.4c-4.5,0-8.7,1.1-12.6,3.4
		c-3.8,2.3-6.9,5.4-9.1,9.3s-3.4,8.2-3.4,12.9c0,5.6,1.6,10.6,4.8,15.1c3.2,4.5,7.3,7.5,12.3,9.3c0.6,0.1,1,0,1.3-0.2s0.4-0.6,0.4-1
		c0-0.1,0-0.7,0-1.8c0-1.1,0-2.1,0-3l-0.8,0.1c-0.5,0.1-1.1,0.1-1.8,0.1c-0.7,0-1.5-0.1-2.3-0.2c-0.8-0.1-1.5-0.5-2.2-1
		s-1.2-1.2-1.4-2.1l-0.3-0.8c-0.2-0.5-0.6-1.1-1-1.7c-0.5-0.6-0.9-1-1.4-1.3l-0.2-0.2c-0.1-0.1-0.3-0.2-0.4-0.4s-0.2-0.3-0.3-0.5
		c-0.1-0.2,0-0.3,0.2-0.4c0.2-0.1,0.5-0.1,0.9-0.1l0.7,0.1c0.4,0.1,1,0.4,1.6,0.8c0.6,0.4,1.2,1,1.6,1.7c0.5,0.9,1.1,1.6,1.8,2.1
		c0.7,0.5,1.4,0.7,2.1,0.7s1.3-0.1,1.9-0.2c0.5-0.1,1-0.3,1.5-0.5c0.2-1.5,0.7-2.6,1.6-3.4c-1.2-0.1-2.3-0.3-3.3-0.6
		c-1-0.3-2-0.7-3.1-1.3c-1-0.6-1.9-1.3-2.6-2.2c-0.7-0.9-1.3-2.1-1.7-3.5c-0.4-1.4-0.7-3.1-0.7-5c0-2.7,0.9-5,2.6-6.9
		c-0.8-2-0.7-4.3,0.2-6.8c0.6-0.2,1.6,0,2.8,0.5c1.2,0.5,2.1,0.9,2.7,1.3c0.6,0.4,1,0.7,1.4,0.9c2-0.6,4.1-0.9,6.3-0.9
		c2.1,0,4.2,0.3,6.2,0.9l1.2-0.8c0.8-0.5,1.8-1,3-1.5c1.2-0.4,2-0.6,2.6-0.4c1,2.5,1.1,4.8,0.3,6.8c1.7,1.9,2.6,4.2,2.6,6.9
		c0,1.9-0.2,3.6-0.7,5c-0.4,1.5-1,2.6-1.7,3.5c-0.7,0.9-1.6,1.6-2.6,2.2s-2.1,1-3.1,1.3c-1,0.3-2.1,0.5-3.3,0.6
		c1.1,1,1.7,2.6,1.7,4.7v7c0,0.4,0.1,0.7,0.4,1c0.3,0.3,0.7,0.4,1.3,0.2c5-1.7,9.1-4.8,12.3-9.3c3.2-4.5,4.8-9.5,4.8-15.1
		C263.2,145.7,262.1,141.4,259.9,137.5z"/>
</g>
</svg>
