<?xml version="1.0" encoding="utf-8"?>
<!-- Generator: Adobe Illustrator 19.0.0, SVG Export Plug-In . SVG Version: 6.00 Build 0)  -->
<svg version="1.1" id="Layer_1" xmlns="http://www.w3.org/2000/svg" xmlns:xlink="http://www.w3.org/1999/xlink" x="0px" y="0px"
	 viewBox="32 126 50 50" style="enable-background:new 32 126 50 50;" xml:space="preserve">
<style type="text/css">
	.st0{fill:#FFFFFF;stroke:#FFFFFF;stroke-width:0.1953;stroke-miterlimit:10;}
</style>
<g>
	<path class="st0" d="M57,130.5c6.7,0,7.5,0,10.1,0.1c2.4,0.1,3.8,0.5,4.6,0.9c1.2,0.5,2,1,2.9,1.9c0.9,0.9,1.4,1.7,1.9,2.9
		c0.3,0.9,0.7,2.2,0.9,4.6c0.1,2.6,0.1,3.4,0.1,10.1c0,6.7,0,7.5-0.1,10.1c-0.1,2.4-0.5,3.8-0.9,4.6c-0.5,1.2-1,2-1.9,2.9
		c-0.9,0.9-1.7,1.4-2.9,1.9c-0.9,0.3-2.2,0.7-4.6,0.9c-2.6,0.1-3.4,0.1-10.1,0.1s-7.5,0-10.1-0.1c-2.4-0.1-3.8-0.5-4.6-0.9
		c-1.2-0.5-2-1-2.9-1.9c-0.9-0.9-1.4-1.7-1.9-2.9c-0.3-0.9-0.7-2.2-0.9-4.6c-0.1-2.6-0.1-3.4-0.1-10.1c0-6.7,0-7.5,0.1-10.1
		c0.1-2.4,0.5-3.8,0.9-4.6c0.5-1.2,1-2,1.9-2.9c0.9-0.9,1.7-1.4,2.9-1.9c0.9-0.3,2.2-0.7,4.6-0.9C49.5,130.5,50.3,130.5,57,130.5
		 M57,126c-6.8,0-7.6,0-10.3,0.2c-2.7,0.1-4.5,0.5-6.1,1.2c-1.6,0.6-3,1.5-4.4,2.9c-1.4,1.4-2.2,2.8-2.9,4.4c-0.6,1.6-1,3.4-1.2,6.1
		C32,143.4,32,144.2,32,151s0,7.6,0.2,10.3c0.1,2.7,0.5,4.5,1.2,6.1c0.6,1.6,1.5,3,2.9,4.4c1.4,1.4,2.8,2.2,4.4,2.9
		c1.6,0.6,3.4,1,6.1,1.2c2.7,0.1,3.5,0.2,10.3,0.2s7.6,0,10.3-0.2c2.7-0.1,4.5-0.5,6.1-1.2c1.6-0.6,3-1.5,4.4-2.9
		c1.4-1.4,2.2-2.8,2.9-4.4c0.6-1.6,1-3.4,1.2-6.1c0.1-2.7,0.2-3.5,0.2-10.3s0-7.6-0.2-10.3c-0.1-2.7-0.5-4.5-1.2-6.1
		c-0.6-1.6-1.5-3-2.9-4.4c-1.4-1.4-2.8-2.2-4.4-2.9c-1.6-0.6-3.4-1-6.1-1.2C64.6,126,63.8,126,57,126z M57,138.2
		c-7.1,0-12.8,5.7-12.8,12.8s5.7,12.8,12.8,12.8s12.8-5.7,12.8-12.8S64.1,138.2,57,138.2z M57,159.3c-4.6,0-8.3-3.7-8.3-8.3
		c0-4.6,3.7-8.3,8.3-8.3s8.3,3.7,8.3,8.3C65.3,155.6,61.6,159.3,57,159.3z M73.3,137.7c0,1.7-1.3,3-3,3c-1.7,0-3-1.3-3-3
		c0-1.7,1.3-3,3-3C72,134.7,73.3,136,73.3,137.7z"/>
</g>
</svg>
