<?xml version="1.0" encoding="utf-8"?>
<!-- Generator: Adobe Illustrator 19.0.0, SVG Export Plug-In . SVG Version: 6.00 Build 0)  -->
<svg version="1.1" id="Capa_1" xmlns="http://www.w3.org/2000/svg" xmlns:xlink="http://www.w3.org/1999/xlink" x="0px" y="0px"
	 viewBox="261.2 124.8 50 50" style="enable-background:new 261.2 124.8 50 50;" xml:space="preserve">
<style type="text/css">
	.st0{fill:#FFFFFF;}
</style>
<g>
	<g>
		<g>
			<path class="st0" d="M272.3,174.8h-11.1v-37.6h11.1V174.8z M267.1,134.9c-2.9,0-5.2-2.3-5.2-5c0-2.8,2.3-5,5.2-5
				c2.9,0,5.2,2.3,5.2,5C272.3,132.6,270,134.9,267.1,134.9z M311.2,174.8h-11.1v-23.3c0-2.7-0.8-4.6-4.3-4.6
				c-5.7,0-6.9,4.6-6.9,4.6v23.3h-11.1v-37.6H289v3.6c1.6-1.2,5.6-3.6,11.1-3.6c3.6,0,11.1,2.1,11.1,14.7V174.8L311.2,174.8z"/>
		</g>
	</g>
</g>
</svg>
